<svg xmlns="http://www.w3.org/2000/svg" version="1.1" xmlns:xlink="http://www.w3.org/1999/xlink" width="1000" height="1000"><metadata><rdf:RDF xmlns:rdf="http://www.w3.org/1999/02/22-rdf-syntax-ns#" xmlns:dc="http://purl.org/dc/elements/1.1/"><rdf:Description><dc:creator>RealFaviconGenerator</dc:creator><dc:source>https://realfavicongenerator.net</dc:source></rdf:Description></rdf:RDF></metadata><g clip-path="url(#SvgjsClipPath1120)"><rect width="1000" height="1000" fill="#ffffff"></rect><g transform="matrix(3.3711652521187037,0,0,3.3711652521187037,100,113.3722832147954)"><svg xmlns="http://www.w3.org/2000/svg" version="1.1" id="svg1" width="237.30667" height="229.37334" viewBox="0 0 237.30667 229.37334" sodipodi:docname="HooCS Logo.eps" xmlns:inkscape="http://www.inkscape.org/namespaces/inkscape" xmlns:sodipodi="http://sodipodi.sourceforge.net/DTD/sodipodi-0.dtd" xmlns:svg="http://www.w3.org/2000/svg"><defs id="defs1"><clipPath id="SvgjsClipPath1120"><rect width="1000" height="1000" x="0" y="0" rx="200" ry="200"></rect></clipPath></defs><sodipodi:namedview id="namedview1" pagecolor="#ffffff" bordercolor="#000000" borderopacity="0.25" inkscape:showpageshadow="2" inkscape:pageopacity="0.0" inkscape:pagecheckerboard="0" inkscape:deskcolor="#d1d1d1">
    <inkscape:page x="0" y="0" inkscape:label="1" id="page1" width="237.30667" height="229.37334" margin="0" bleed="0"></inkscape:page>
  </sodipodi:namedview><g id="g1" inkscape:groupmode="layer" inkscape:label="1">
    <g id="group-R5">
      <path id="path2" d="M 730.133,855.234 246.438,1134.5 c 9.738,38.96 31.296,76.07 60.082,104.06 L 790.215,959.297 730.133,855.234" style="fill:#f36635;fill-opacity:1;fill-rule:nonzero;stroke:none" transform="matrix(0.13333333,0,0,-0.13333333,0,229.37333)"></path>
      <path id="path3" d="m 268.039,1292.38 c -1.309,-3.85 -3.062,-3.11 -5.23,-5 -39.332,-34.39 -69.336,-88.02 -80.387,-138.88 -1.309,-6.02 0.851,-7.06 -6.348,-10.32 -6.66,-3.02 -13.761,-0.75 -17.754,5.43 -4.238,6.57 1.184,23.44 3.332,30.74 11.977,40.63 35.157,81.42 63.496,112.87 5.278,5.85 20.036,21.97 27.352,22.99 9.406,1.31 18.59,-8.86 15.539,-17.83" style="fill:#f36635;fill-opacity:1;fill-rule:nonzero;stroke:none" transform="matrix(0.13333333,0,0,-0.13333333,0,229.37333)"></path>
      <path id="path4" d="m 305.199,1249.43 c -1.344,-3.32 -4.535,-4.5 -6.84,-6.8 -23.902,-23.9 -45.203,-57.36 -55.828,-89.54 -1.593,-4.83 -3.926,-19.51 -5.797,-22.43 -3.105,-4.85 -10.464,-5.65 -15.031,-2.55 -8.035,5.45 -3.898,16.54 -1.762,24.16 9.188,32.75 28.59,67.38 51.016,92.97 3.754,4.28 13.762,15.17 18.324,17.59 8.938,4.73 19.797,-3.84 15.918,-13.4" style="fill:#f36635;fill-opacity:1;fill-rule:nonzero;stroke:none" transform="matrix(0.13333333,0,0,-0.13333333,0,229.37333)"></path>
      <path id="path5" d="m 209.773,1148.23 c -2.218,1.43 -5.929,1.98 -8.429,1.16 -3.442,-1.14 -4.887,-4.79 -8.176,-5.61 11.746,52.62 39.883,99.99 79.035,136.89 1.399,-1.63 -0.656,-3.46 -0.988,-5.23 -0.887,-4.72 0.469,-9.83 5.078,-12 -31.559,-31.81 -54.91,-71.88 -66.52,-115.21" style="fill:#f36635;fill-opacity:1;fill-rule:nonzero;stroke:none" transform="matrix(0.13333333,0,0,-0.13333333,0,229.37333)"></path>
      <path id="path6" d="m 50,834.801 c 0,461.439 374.07,835.509 835.508,835.509 461.442,0 835.512,-374.07 835.512,-835.509" style="fill:none;stroke:#f36635;stroke-width:100;stroke-linecap:butt;stroke-linejoin:miter;stroke-miterlimit:10;stroke-dasharray:none;stroke-opacity:1" transform="matrix(0.13333333,0,0,-0.13333333,0,229.37333)"></path>
      <path id="path7" d="M 825.516,979.578 V 1538.1 c 38.609,11.04 81.527,10.93 120.16,0 V 979.578 h -120.16" style="fill:#f36635;fill-opacity:1;fill-rule:nonzero;stroke:none" transform="matrix(0.13333333,0,0,-0.13333333,0,229.37333)"></path>
      <path id="path8" d="m 973.043,1598.33 c -3.984,-0.79 -4.219,1.1 -6.945,2.03 -49.442,16.87 -110.895,16.04 -160.465,0.18 -5.867,-1.88 -5.684,-4.27 -12.11,0.34 -5.945,4.26 -7.531,11.54 -4.171,18.09 3.566,6.95 20.894,10.69 28.285,12.48 41.179,9.95 88.093,10.27 129.496,1.45 7.707,-1.65 29.047,-6.36 33.59,-12.19 5.836,-7.5 1.617,-20.53 -7.68,-22.38" style="fill:#f36635;fill-opacity:1;fill-rule:nonzero;stroke:none" transform="matrix(0.13333333,0,0,-0.13333333,0,229.37333)"></path>
      <path id="path9" d="m 954.43,1544.68 c -3.543,-0.5 -6.168,1.67 -9.313,2.52 -32.64,8.76 -72.273,10.46 -105.457,3.58 -4.976,-1.04 -18.851,-6.35 -22.316,-6.19 -5.754,0.26 -10.125,6.23 -9.727,11.73 0.703,9.69 12.379,11.66 20.039,13.61 32.961,8.42 72.653,8.93 106.024,2.31 5.59,-1.11 20.019,-4.33 24.394,-7.08 8.571,-5.37 6.574,-19.06 -3.644,-20.48" style="fill:#f36635;fill-opacity:1;fill-rule:nonzero;stroke:none" transform="matrix(0.13333333,0,0,-0.13333333,0,229.37333)"></path>
      <path id="path10" d="m 819.078,1576.72 c 0.125,2.64 -1.246,6.13 -3.211,7.88 -2.707,2.41 -6.594,1.84 -8.945,4.28 51.437,16.13 106.539,15.45 158.066,0 -0.715,-2.04 -3.324,-1.17 -5.023,-1.77 -4.531,-1.59 -8.274,-5.31 -7.852,-10.39 -43.332,11.42 -89.707,11.61 -133.035,0" style="fill:#f36635;fill-opacity:1;fill-rule:nonzero;stroke:none" transform="matrix(0.13333333,0,0,-0.13333333,0,229.37333)"></path>
      <path id="path11" d="m 729.469,813.988 735.121,424.422 c 28.87,-27.92 50.22,-65.14 60.08,-104.07 L 789.551,709.922 729.469,813.988" style="fill:#f36635;fill-opacity:1;fill-rule:nonzero;stroke:none" transform="matrix(0.13333333,0,0,-0.13333333,0,229.37333)"></path>
      <path id="path12" d="m 1590.51,1140.76 c -2.68,3.05 -1.16,4.2 -1.71,7.03 -10.11,51.25 -41.56,104.05 -80.08,139.05 -4.56,4.15 -6.54,2.79 -5.76,10.66 0.71,7.28 6.22,12.29 13.58,12.66 7.8,0.39 19.71,-12.75 24.95,-18.26 29.2,-30.69 52.94,-71.15 66,-111.42 2.43,-7.5 9.01,-28.34 6.24,-35.18 -3.57,-8.8 -16.97,-11.67 -23.22,-4.54" style="fill:#f36635;fill-opacity:1;fill-rule:nonzero;stroke:none" transform="matrix(0.13333333,0,0,-0.13333333,0,229.37333)"></path>
      <path id="path13" d="m 1534.74,1130.05 c -2.2,2.82 -1.63,6.18 -2.48,9.33 -8.73,32.64 -27.07,67.82 -49.62,93.11 -3.39,3.8 -14.93,13.16 -16.52,16.24 -2.65,5.11 0.34,11.88 5.3,14.29 8.74,4.23 16.28,-4.89 21.8,-10.55 23.78,-24.34 44.06,-58.45 55.01,-90.67 1.84,-5.39 6.26,-19.5 6.07,-24.66 -0.37,-10.11 -13.22,-15.23 -19.56,-7.09" style="fill:#f36635;fill-opacity:1;fill-rule:nonzero;stroke:none" transform="matrix(0.13333333,0,0,-0.13333333,0,229.37333)"></path>
      <path id="path14" d="m 1494.81,1263.29 c 2.35,1.21 4.68,4.14 5.22,6.72 0.74,3.55 -1.7,6.63 -0.77,9.89 39.7,-36.48 66.65,-84.54 79.03,-136.89 -2.11,-0.4 -2.67,2.29 -4.03,3.47 -3.65,3.13 -8.75,4.5 -12.93,1.6 -11.77,43.24 -34.8,83.49 -66.52,115.21" style="fill:#f36635;fill-opacity:1;fill-rule:nonzero;stroke:none" transform="matrix(0.13333333,0,0,-0.13333333,0,229.37333)"></path>
      <path id="path15" d="m 1217.57,911.574 c 0,-181.613 -147.22,-328.836 -328.832,-328.836 -181.613,0 -328.84,147.223 -328.84,328.836 0,181.606 147.227,328.836 328.84,328.836 181.612,0 328.832,-147.23 328.832,-328.836" style="fill:#ffffff;fill-opacity:1;fill-rule:nonzero;stroke:none" transform="matrix(0.13333333,0,0,-0.13333333,0,229.37333)"></path>
      <path id="path16" d="m 939.59,863.422 v 109.644 h 23.027 V 863.422 H 939.59" style="fill:#232b47;fill-opacity:1;fill-rule:nonzero;stroke:none" transform="matrix(0.13333333,0,0,-0.13333333,0,229.37333)"></path>
      <path id="path17" d="m 815.27,863.422 v 109.644 h 22.293 V 863.422 H 815.27" style="fill:#232b47;fill-opacity:1;fill-rule:nonzero;stroke:none" transform="matrix(0.13333333,0,0,-0.13333333,0,229.37333)"></path>
      <path id="path18" d="m 845.234,863.422 v 109.644 h 23.774 V 863.422 h -23.774" style="fill:#232b47;fill-opacity:1;fill-rule:nonzero;stroke:none" transform="matrix(0.13333333,0,0,-0.13333333,0,229.37333)"></path>
      <path id="path19" d="m 876.691,863.422 v 109.644 h 23.77 V 863.422 h -23.77" style="fill:#232b47;fill-opacity:1;fill-rule:nonzero;stroke:none" transform="matrix(0.13333333,0,0,-0.13333333,0,229.37333)"></path>
      <path id="path20" d="M 931.906,973.066 V 863.422 h -23.773 v 109.644 h 23.773" style="fill:#232b47;fill-opacity:1;fill-rule:nonzero;stroke:none" transform="matrix(0.13333333,0,0,-0.13333333,0,229.37333)"></path>
      <path id="path21" d="M 952.723,980.813 H 824.656 l 65.735,40.447 z" style="fill:#232b47;fill-opacity:1;fill-rule:nonzero;stroke:none" transform="matrix(0.13333333,0,0,-0.13333333,0,229.37333)"></path>
      <path id="path22" d="m 809.91,980.813 h -54.863 v 40.867 H 876.324 L 809.91,980.813" style="fill:#232b47;fill-opacity:1;fill-rule:nonzero;stroke:none" transform="matrix(0.13333333,0,0,-0.13333333,0,229.37333)"></path>
      <path id="path23" d="m 903.949,1021.68 h 118.161 v -40.867 h -55.196 l -62.965,40.867" style="fill:#232b47;fill-opacity:1;fill-rule:nonzero;stroke:none" transform="matrix(0.13333333,0,0,-0.13333333,0,229.37333)"></path>
      <path id="path24" d="M 1005.2,1029.42 H 771.957 c 22.836,41.2 66.504,69.04 116.613,69.04 50.11,0 93.774,-27.84 116.63,-69.04" style="fill:#232b47;fill-opacity:1;fill-rule:nonzero;stroke:none" transform="matrix(0.13333333,0,0,-0.13333333,0,229.37333)"></path>
      <path id="path25" d="m 755.047,954.129 v 6.371 l 1.539,-1.117 -1.117,-3.418 z m 45.445,-90.707 h -10.336 l 5.168,3.754 z m 7.106,0 h -7.063 l -1.98,6.098 5.222,3.793 h -6.457 l -1.996,6.14 -1.996,-6.14 h -6.453 l 5.23,-3.793 -1.992,-6.098 h -35.066 l -0.027,66.113 0.027,23.84 4.898,3.559 5.227,-3.797 -1.996,6.14 5.222,3.797 h -6.457 l -1.996,6.141 -0.91,-2.797 -1.258,-3.344 h -2.73 v 9.992 h 52.551 z m -52.578,66.113 5.234,-3.797 -2.008,-6.14 5.223,3.797 5.226,-3.797 -1.996,6.14 5.223,3.797 h -6.457 l -1.996,6.141 -1.992,-6.141 z m 17.992,-34.863 -2.004,-6.141 5.222,3.797 5.223,-3.797 -1.996,6.141 5.227,3.797 h -6.457 l -1.997,6.14 -1.996,-6.14 h -6.457 l 5.235,-3.797" style="fill:#232b47;fill-opacity:1;fill-rule:evenodd;stroke:none" transform="matrix(0.13333333,0,0,-0.13333333,0,229.37333)"></path>
      <path id="path26" d="m 807.598,855.672 v -29.109 h -52.551 v 29.109 h 52.551" style="fill:#232b47;fill-opacity:1;fill-rule:evenodd;stroke:none" transform="matrix(0.13333333,0,0,-0.13333333,0,229.37333)"></path>
      <path id="path27" d="m 970.289,855.672 h 51.821 v -29.109 h -51.821 v 29.109" style="fill:#232b47;fill-opacity:1;fill-rule:evenodd;stroke:none" transform="matrix(0.13333333,0,0,-0.13333333,0,229.37333)"></path>
      <path id="path28" d="m 891.762,826.563 h -5.91 l 2.937,2.136 z m -39.785,8.558 -2.004,-6.141 5.222,3.793 5.223,-3.793 -1.996,6.141 5.223,3.797 h -6.454 l -1.996,6.141 -1.996,-6.141 h -6.457 z m 33.593,-4.074 -1.461,-4.484 H 815.27 v 29.109 h 8.488 l -1.481,-4.555 h -6.457 l 5.235,-3.797 -2.004,-6.14 5.222,3.797 5.223,-3.797 -1.992,6.14 5.223,3.797 h -6.457 l -1.481,4.555 h 127.93 l -1.481,-4.555 h -6.457 l 5.223,-3.797 -1.996,-6.14 5.222,3.797 5.227,-3.797 -2.008,6.14 5.235,3.797 h -6.457 l -1.481,4.555 h 8.871 v -29.109 h -69.144 l -1.453,4.484 5.222,3.793 h -6.457 l -1.996,6.14 -1.992,-6.14 h -6.457 z m 39.024,4.074 5.234,3.797 h -6.457 l -1.996,6.141 -1.996,-6.141 h -6.457 l 5.223,-3.797 -1.993,-6.141 5.223,3.793 5.223,-3.793 -2.004,6.141" style="fill:#232b47;fill-opacity:1;fill-rule:evenodd;stroke:none" transform="matrix(0.13333333,0,0,-0.13333333,0,229.37333)"></path>
      <path id="path29" d="m 1022.11,960.242 v -5.027 l -1.33,4.062 z m 0,-96.82 h -34.719 -10.375 -6.727 v 109.644 h 51.821 v -9.992 h -2.56 l -1.99,6.141 -2,-6.141 h -6.45 l 5.22,-3.797 -1.99,-6.14 5.22,3.797 4.55,-3.301 v -24.098 h -6.08 l -1.99,6.141 -2,-6.141 h -6.46 l 5.23,-3.797 -2,-6.14 5.23,3.797 5.22,-3.797 -2.01,6.14 4.86,3.52 z m -34.719,0 -1.993,6.098 5.235,3.793 h -6.457 l -1.992,6.14 -1.996,-6.14 h -6.458 l 5.223,-3.793 -1.98,-6.098 5.211,3.754 5.164,-3.754 z m 17.099,31.25 5.24,3.797 h -6.46 l -1.99,6.14 -1.999,-6.14 h -6.457 l 5.223,-3.797 -1.992,-6.141 5.225,3.797 5.22,-3.797 -2.01,6.141" style="fill:#232b47;fill-opacity:1;fill-rule:evenodd;stroke:none" transform="matrix(0.13333333,0,0,-0.13333333,0,229.37333)"></path>
      <path id="path30" d="m 31.779882,-18.809498 c 0.75,0 1.183594,0.164062 1.183594,0.644531 v 1.523437 c 0,0.972657 -0.105469,9.6093753 -0.210937,12.2109378 -0.05859,1.453125 -0.105469,2.4257813 -1.40625,2.4257813 H 28.42832 c -0.375,0 -0.433594,0.1640625 -0.433594,0.4335937 v 1.24218751 c 0,0.22265625 0.105469,0.4921875 0.433594,0.4921875 1.511719,0 3.246094,-0.1640624975 8.320312,-0.1640624975 4.652344,0 6.492188,0.1640624975 7.347657,0.1640624975 0.433593,0 0.550781,-0.22265625 0.550781,-0.5390625 V -1.6180922 c 0,-0.2226562 -0.117188,-0.3867187 -0.433594,-0.3867187 h -2.167969 c -1.617187,0 -2.15625,-0.75 -2.15625,-2.6953125 0,-3.0820313 -0.117187,-10.7578126 -0.117187,-13.1367186 v -5.835938 c 0,-1.734375 0.117187,-9.082031 0.117187,-9.832031 0,-1.898437 0.105469,-2.765625 1.722657,-2.765625 h 1.945312 c 0.539063,0 0.65625,-0.210937 0.65625,-0.539062 v -1.136719 c 0,-0.269531 -0.117187,-0.480469 -0.65625,-0.480469 -0.867187,0 -3.023437,0.164063 -7.136719,0.164063 -4.3125,0 -6.691406,-0.164063 -7.664062,-0.164063 -0.386719,0 -0.433594,0.164063 -0.433594,0.433594 v 1.242187 c 0,0.328125 0.04687,0.480469 0.433594,0.480469 h 2.484375 c 1.183594,0 1.40625,0.972656 1.453125,2.707031 0.05859,0.597657 0.269531,8.15625 0.269531,10.101563 v 1.628906 c 0,0.585938 -0.210937,0.75 -1.078125,0.75 H 14.049414 c -0.480469,0 -0.644532,-0.210937 -0.644532,-0.75 v -2.167969 c 0,-1.40625 0.210938,-8.53125 0.269532,-9.292968 0.04687,-2.109375 0.269531,-2.976563 2.214843,-2.976563 h 1.945313 c 0.433594,0 0.539062,-0.210937 0.539062,-0.539062 v -1.136719 c 0,-0.269531 -0.105468,-0.480469 -0.539062,-0.480469 -0.972656,0 -2.917969,0.164063 -7.78125,0.164063 -5.2968751,0 -7.0312501,-0.164063 -8.0039063,-0.164063 -0.4335938,0 -0.5390625,0.328125 -0.5390625,0.539063 v 1.136718 c 0,0.269532 0.1054687,0.480469 0.5390625,0.480469 h 2.3789062 c 1.734375,0 2.0507813,0.761719 2.0507813,3.46875 0,0.808594 0.1171875,7.511719 0.1171875,9.128906 v 6.914063 c 0,3.457031 -0.1171875,9.6210936 -0.1171875,12.2226561 0,1.2421875 -0.2109375,2.53125 -1.5117188,2.53125 h -2.8125 c -0.421875,0 -0.5390625,0.1171875 -0.5390625,0.4335937 v 1.24218751 c 0,0.26953125 0.1171875,0.4921875 0.5390625,0.4921875 1.0898438,0 2.7070313,-0.1640624975 8.0039066,-0.1640624975 4.429687,0 6.269531,0.1640624975 7.242187,0.1640624975 0.433594,0 0.539063,-0.22265625 0.539063,-0.5390625 V -1.6180922 c 0,-0.2695312 -0.105469,-0.3867187 -0.539063,-0.3867187 h -1.945312 c -1.183594,0 -1.78125,-0.5390625 -1.839844,-1.828125 -0.105469,-3.7382813 -0.210938,-10.0078121 -0.210938,-11.9531251 v -2.320312 c 0,-0.492188 0.164063,-0.703125 0.75,-0.703125 z m 29.830079,-4.382813 c -2.214844,0 -5.027344,0.433594 -7.675782,2.601563 -3.246093,2.589843 -4.535156,6.375 -4.535156,8.964843 0,3.3046878 0.539063,5.5664066 2.917969,8.3789066 2.425781,2.91796871 5.34375,3.89062496 8.753906,3.89062496 3.621094,0 6.855469,-1.40625 9.082031,-3.89062496 2.050782,-2.2617188 3.351563,-5.1796875 3.351563,-8.2148436 0,-3.1875 -1.195313,-6 -3.738281,-8.53125 -1.839844,-1.792969 -4.535157,-3.199219 -8.15625,-3.199219 z m -0.105469,21.5742188 c -2.167969,0 -3.351563,-0.8671875 -4.277344,-2.3320312 -1.453125,-2.3203125 -1.675781,-4.3710938 -1.675781,-7.5117186 0,-3.9375 0.65625,-6.210938 2.332031,-8.109375 0.914063,-1.019531 1.992188,-1.453125 3.398438,-1.453125 2.484375,0 5.625,3.457031 5.625,9.398437 0,5.5195316 -1.839844,10.0078128 -5.402344,10.0078128 z M 90.736914,-23.192311 c -2.214844,0 -5.027344,0.433594 -7.675782,2.601563 -3.246093,2.589843 -4.535156,6.375 -4.535156,8.964843 0,3.3046878 0.539063,5.5664066 2.917969,8.3789066 2.425781,2.91796871 5.34375,3.89062496 8.753906,3.89062496 3.621094,0 6.855469,-1.40625 9.082031,-3.89062496 2.050778,-2.2617188 3.351558,-5.1796875 3.351558,-8.2148436 0,-3.1875 -1.19531,-6 -3.738276,-8.53125 -1.839844,-1.792969 -4.535157,-3.199219 -8.15625,-3.199219 z m -0.105469,21.5742188 c -2.167969,0 -3.351563,-0.8671875 -4.277344,-2.3320312 -1.453125,-2.3203125 -1.675781,-4.3710938 -1.675781,-7.5117186 0,-3.9375 0.65625,-6.210938 2.332031,-8.109375 0.914063,-1.019531 1.992188,-1.453125 3.398438,-1.453125 2.484375,0 5.625,3.457031 5.625,9.398437 0,5.5195316 -1.839844,10.0078128 -5.402344,10.0078128 z m 52.904295,-8.0039062 c -0.16406,-0.1640625 -0.375,0 -0.64453,0.375 -2.27344,3.3046875 -6.97266,6.2695312 -12.92578,6.2695312 -2.58984,0 -5.71875,-0.4335937 -9.29297,-4.2070312 -3.99609,-4.3242186 -4.96875,-10.7109376 -4.96875,-14.0624996 0,-7.78125 3.5625,-15.5625 12.21094,-15.5625 4.21875,0 7.03125,1.734375 9.41015,4.007812 2.26172,2.367188 3.5625,5.074219 4.20704,7.019531 0.16406,0.433594 0.32812,0.644532 0.59765,0.539063 l 1.03125,-0.316406 c 0.21094,-0.05859 0.26953,-0.222657 0.21094,-0.550782 -0.21094,-1.617187 -1.30078,-10.265625 -1.30078,-11.238281 0,-0.75 -0.10547,-0.867187 -0.75,-0.867187 -0.64453,0 -0.76172,0 -0.86719,0.328125 l -0.43359,1.40625 c -0.10547,0.433593 -0.31641,0.433593 -1.07813,0 -1.94531,-1.078125 -5.9414,-2.589844 -10.92187,-2.589844 -6.48047,0 -11.13282,2.589844 -14.05078,5.71875 -3.78516,4.113281 -5.50782,9.1875 -5.50782,14.484375 0,4.757812 1.83985,11.0273436 5.83594,14.6015623 3.35156,3.0234375 7.24219,5.07421876 14.15625,5.07421876 7.67578,0 12.86719,-4.42968746 16.11328,-9.08203126 0.10547,-0.2109375 0.0469,-0.375 -0.11719,-0.5390625 z m 8.15918,-2.5429686 c -0.22265,0 -0.26953,0.117187 -0.32812,0.433594 -0.10547,0.65625 -0.86719,9.4101558 -0.97266,10.0546871 0,0.5390625 0.21094,0.86718746 0.64453,0.86718746 0.4336,0 0.65625,-0.10546875 0.97266,-0.65624996 0.32812,-0.5390625 0.55078,-0.9726563 0.86719,-0.9726563 0.32812,0 0.65625,0.2226563 1.30078,0.65625 2.15625,1.61718751 4.75781,2.58984376 9.1875,2.58984376 7.13672,0 11.46093,-5.40234376 11.46093,-12.00000006 0,-3.621094 -0.97265,-5.882812 -2.70703,-7.722656 -2.05078,-2.167969 -4.65234,-3.246094 -7.78125,-4.21875 -2.16797,-0.644531 -5.1914,-1.945313 -6.59765,-3.351563 -1.28907,-1.40625 -1.51172,-3.023437 -1.51172,-4.863281 0,-2.003906 1.73437,-5.460937 6.05859,-5.460937 2.48438,0 4.20703,0.761718 5.61328,2.273437 1.94532,2.050781 2.8125,4.21875 3.35157,5.730469 0.11718,0.316406 0.32812,0.375 0.53906,0.316406 l 0.86719,-0.269531 c 0.22265,-0.04687 0.32812,-0.152344 0.32812,-0.375 0,-0.539063 -0.86719,-8.109375 -0.86719,-8.964844 0,-0.550781 -0.10547,-0.867187 -0.43359,-0.867187 -0.31641,0 -0.53906,0.105468 -0.75,0.316406 l -0.70313,0.703125 c -0.26953,0.269531 -0.59765,0.386719 -1.13671,0.164062 -1.07813,-0.433593 -3.2461,-1.289062 -6.8086,-1.289062 -3.14062,0 -5.51953,0.75 -7.67578,2.589844 -2.60156,2.050781 -3.78516,4.535156 -3.78516,7.570312 0,3.292969 0.86719,6 2.70704,7.722656 2.58984,2.378907 6.15234,3.890625 7.88671,4.546875 5.73047,2.15625 7.99219,3.773438 7.99219,8.7539066 0,4.4765625 -4.10156,6.3164062 -7.01953,6.3164062 -2.70703,0 -5.51953,-1.2890625 -7.13672,-3.890625 -1.51172,-2.3789062 -1.94531,-4.4296875 -2.05078,-6.1640628 0,-0.316406 -0.10547,-0.421875 -0.32812,-0.421875 z m 0,0" style="fill:#232b47;fill-opacity:1;fill-rule:nonzero;stroke:none" aria-label="HooCS" transform="matrix(1.3333333,0,0,1.3333333,0.89635467,178.9348)"></path>
    </g>
  </g></svg></g></g></svg>