<?xml version="1.0" encoding="UTF-8" standalone="no"?>
<!-- Created with Inkscape (http://www.inkscape.org/) -->

<svg
   version="1.1"
   id="svg1"
   width="237.30667"
   height="115"
   viewBox="0 0 237.30667 115"
   sodipodi:docname="HooCS Logo(1).svg"
   inkscape:export-filename="../projects/hoocs/logo_text.svg"
   inkscape:export-xdpi="96"
   inkscape:export-ydpi="96"
   xmlns:inkscape="http://www.inkscape.org/namespaces/inkscape"
   xmlns:sodipodi="http://sodipodi.sourceforge.net/DTD/sodipodi-0.dtd"
   xmlns="http://www.w3.org/2000/svg"
   xmlns:svg="http://www.w3.org/2000/svg">
  <defs
     id="defs1" />
  <sodipodi:namedview
     id="namedview1"
     pagecolor="#ffffff"
     bordercolor="#000000"
     borderopacity="0.25"
     inkscape:showpageshadow="2"
     inkscape:pageopacity="0.0"
     inkscape:pagecheckerboard="0"
     inkscape:deskcolor="#d1d1d1">
    <inkscape:page
       x="0"
       y="0"
       inkscape:label="1"
       id="page1"
       width="237.30667"
       height="115"
       margin="0"
       bleed="0" />
  </sodipodi:namedview>
  <g
     id="g1"
     inkscape:groupmode="layer"
     inkscape:label="1">
    <g
       id="group-R5">
      <path
         id="path2"
         d="M 730.133,855.234 246.438,1134.5 c 9.738,38.96 31.296,76.07 60.082,104.06 L 790.215,959.297 730.133,855.234"
         style="fill:#f36635;fill-opacity:1;fill-rule:nonzero;stroke:none"
         transform="matrix(0.13333333,0,0,-0.13333333,0,229.37333)" />
      <path
         id="path3"
         d="m 268.039,1292.38 c -1.309,-3.85 -3.062,-3.11 -5.23,-5 -39.332,-34.39 -69.336,-88.02 -80.387,-138.88 -1.309,-6.02 0.851,-7.06 -6.348,-10.32 -6.66,-3.02 -13.761,-0.75 -17.754,5.43 -4.238,6.57 1.184,23.44 3.332,30.74 11.977,40.63 35.157,81.42 63.496,112.87 5.278,5.85 20.036,21.97 27.352,22.99 9.406,1.31 18.59,-8.86 15.539,-17.83"
         style="fill:#f36635;fill-opacity:1;fill-rule:nonzero;stroke:none"
         transform="matrix(0.13333333,0,0,-0.13333333,0,229.37333)" />
      <path
         id="path4"
         d="m 305.199,1249.43 c -1.344,-3.32 -4.535,-4.5 -6.84,-6.8 -23.902,-23.9 -45.203,-57.36 -55.828,-89.54 -1.593,-4.83 -3.926,-19.51 -5.797,-22.43 -3.105,-4.85 -10.464,-5.65 -15.031,-2.55 -8.035,5.45 -3.898,16.54 -1.762,24.16 9.188,32.75 28.59,67.38 51.016,92.97 3.754,4.28 13.762,15.17 18.324,17.59 8.938,4.73 19.797,-3.84 15.918,-13.4"
         style="fill:#f36635;fill-opacity:1;fill-rule:nonzero;stroke:none"
         transform="matrix(0.13333333,0,0,-0.13333333,0,229.37333)" />
      <path
         id="path5"
         d="m 209.773,1148.23 c -2.218,1.43 -5.929,1.98 -8.429,1.16 -3.442,-1.14 -4.887,-4.79 -8.176,-5.61 11.746,52.62 39.883,99.99 79.035,136.89 1.399,-1.63 -0.656,-3.46 -0.988,-5.23 -0.887,-4.72 0.469,-9.83 5.078,-12 -31.559,-31.81 -54.91,-71.88 -66.52,-115.21"
         style="fill:#f36635;fill-opacity:1;fill-rule:nonzero;stroke:none"
         transform="matrix(0.13333333,0,0,-0.13333333,0,229.37333)" />
      <path
         id="path6"
         d="m 50,834.801 c 0,461.439 374.07,835.509 835.508,835.509 461.442,0 835.512,-374.07 835.512,-835.509"
         style="fill:none;stroke:#f36635;stroke-width:100;stroke-linecap:butt;stroke-linejoin:miter;stroke-miterlimit:10;stroke-dasharray:none;stroke-opacity:1"
         transform="matrix(0.13333333,0,0,-0.13333333,0,229.37333)" />
      <path
         id="path7"
         d="M 825.516,979.578 V 1538.1 c 38.609,11.04 81.527,10.93 120.16,0 V 979.578 h -120.16"
         style="fill:#f36635;fill-opacity:1;fill-rule:nonzero;stroke:none"
         transform="matrix(0.13333333,0,0,-0.13333333,0,229.37333)" />
      <path
         id="path8"
         d="m 973.043,1598.33 c -3.984,-0.79 -4.219,1.1 -6.945,2.03 -49.442,16.87 -110.895,16.04 -160.465,0.18 -5.867,-1.88 -5.684,-4.27 -12.11,0.34 -5.945,4.26 -7.531,11.54 -4.171,18.09 3.566,6.95 20.894,10.69 28.285,12.48 41.179,9.95 88.093,10.27 129.496,1.45 7.707,-1.65 29.047,-6.36 33.59,-12.19 5.836,-7.5 1.617,-20.53 -7.68,-22.38"
         style="fill:#f36635;fill-opacity:1;fill-rule:nonzero;stroke:none"
         transform="matrix(0.13333333,0,0,-0.13333333,0,229.37333)" />
      <path
         id="path9"
         d="m 954.43,1544.68 c -3.543,-0.5 -6.168,1.67 -9.313,2.52 -32.64,8.76 -72.273,10.46 -105.457,3.58 -4.976,-1.04 -18.851,-6.35 -22.316,-6.19 -5.754,0.26 -10.125,6.23 -9.727,11.73 0.703,9.69 12.379,11.66 20.039,13.61 32.961,8.42 72.653,8.93 106.024,2.31 5.59,-1.11 20.019,-4.33 24.394,-7.08 8.571,-5.37 6.574,-19.06 -3.644,-20.48"
         style="fill:#f36635;fill-opacity:1;fill-rule:nonzero;stroke:none"
         transform="matrix(0.13333333,0,0,-0.13333333,0,229.37333)" />
      <path
         id="path10"
         d="m 819.078,1576.72 c 0.125,2.64 -1.246,6.13 -3.211,7.88 -2.707,2.41 -6.594,1.84 -8.945,4.28 51.437,16.13 106.539,15.45 158.066,0 -0.715,-2.04 -3.324,-1.17 -5.023,-1.77 -4.531,-1.59 -8.274,-5.31 -7.852,-10.39 -43.332,11.42 -89.707,11.61 -133.035,0"
         style="fill:#f36635;fill-opacity:1;fill-rule:nonzero;stroke:none"
         transform="matrix(0.13333333,0,0,-0.13333333,0,229.37333)" />
      <path
         id="path11"
         d="m 729.469,813.988 735.121,424.422 c 28.87,-27.92 50.22,-65.14 60.08,-104.07 L 789.551,709.922 729.469,813.988"
         style="fill:#f36635;fill-opacity:1;fill-rule:nonzero;stroke:none"
         transform="matrix(0.13333333,0,0,-0.13333333,0,229.37333)" />
      <path
         id="path12"
         d="m 1590.51,1140.76 c -2.68,3.05 -1.16,4.2 -1.71,7.03 -10.11,51.25 -41.56,104.05 -80.08,139.05 -4.56,4.15 -6.54,2.79 -5.76,10.66 0.71,7.28 6.22,12.29 13.58,12.66 7.8,0.39 19.71,-12.75 24.95,-18.26 29.2,-30.69 52.94,-71.15 66,-111.42 2.43,-7.5 9.01,-28.34 6.24,-35.18 -3.57,-8.8 -16.97,-11.67 -23.22,-4.54"
         style="fill:#f36635;fill-opacity:1;fill-rule:nonzero;stroke:none"
         transform="matrix(0.13333333,0,0,-0.13333333,0,229.37333)" />
      <path
         id="path13"
         d="m 1534.74,1130.05 c -2.2,2.82 -1.63,6.18 -2.48,9.33 -8.73,32.64 -27.07,67.82 -49.62,93.11 -3.39,3.8 -14.93,13.16 -16.52,16.24 -2.65,5.11 0.34,11.88 5.3,14.29 8.74,4.23 16.28,-4.89 21.8,-10.55 23.78,-24.34 44.06,-58.45 55.01,-90.67 1.84,-5.39 6.26,-19.5 6.07,-24.66 -0.37,-10.11 -13.22,-15.23 -19.56,-7.09"
         style="fill:#f36635;fill-opacity:1;fill-rule:nonzero;stroke:none"
         transform="matrix(0.13333333,0,0,-0.13333333,0,229.37333)" />
      <path
         id="path14"
         d="m 1494.81,1263.29 c 2.35,1.21 4.68,4.14 5.22,6.72 0.74,3.55 -1.7,6.63 -0.77,9.89 39.7,-36.48 66.65,-84.54 79.03,-136.89 -2.11,-0.4 -2.67,2.29 -4.03,3.47 -3.65,3.13 -8.75,4.5 -12.93,1.6 -11.77,43.24 -34.8,83.49 -66.52,115.21"
         style="fill:#f36635;fill-opacity:1;fill-rule:nonzero;stroke:none"
         transform="matrix(0.13333333,0,0,-0.13333333,0,229.37333)" />
      <path
         id="path15"
         d="m 1217.57,911.574 c 0,-161.61804 -657.672,-161.59189 -657.672,0 0,181.606 147.227,328.836 328.84,328.836 181.612,0 328.832,-147.23 328.832,-328.836"
         style="fill:#ffffff;fill-opacity:1;fill-rule:nonzero;stroke:none"
         transform="matrix(0.13333333,0,0,-0.13333333,0,229.37333)"
         sodipodi:nodetypes="cssc" />
      <path
         id="path16"
         d="m 939.59,938.422 v 109.644 h 23.027 V 938.422 H 939.59"
         style="fill:#232b47;fill-opacity:1;fill-rule:nonzero;stroke:none"
         transform="matrix(0.13333333,0,0,-0.13333333,0,229.37333)"
         sodipodi:nodetypes="ccccc" />
      <path
         id="path17"
         d="m 815.27,938.422 v 109.644 h 22.293 V 938.422 H 815.27"
         style="fill:#232b47;fill-opacity:1;fill-rule:nonzero;stroke:none"
         transform="matrix(0.13333333,0,0,-0.13333333,0,229.37333)"
         sodipodi:nodetypes="ccccc" />
      <path
         id="path18"
         d="m 845.234,938.422 v 109.644 h 23.774 V 938.422 h -23.774"
         style="fill:#232b47;fill-opacity:1;fill-rule:nonzero;stroke:none"
         transform="matrix(0.13333333,0,0,-0.13333333,0,229.37333)"
         sodipodi:nodetypes="ccccc" />
      <path
         id="path19"
         d="m 876.691,938.422 v 109.644 h 23.77 V 938.422 h -23.77"
         style="fill:#232b47;fill-opacity:1;fill-rule:nonzero;stroke:none"
         transform="matrix(0.13333333,0,0,-0.13333333,0,229.37333)"
         sodipodi:nodetypes="ccccc" />
      <path
         id="path20"
         d="M 931.906,1048.066 V 938.422 h -23.773 v 109.644 h 23.773"
         style="fill:#232b47;fill-opacity:1;fill-rule:nonzero;stroke:none"
         transform="matrix(0.13333333,0,0,-0.13333333,0,229.37333)"
         sodipodi:nodetypes="ccccc" />
      <path
         id="path21"
         d="M 952.723,1055.813 H 824.656 l 65.735,40.447 z"
         style="fill:#232b47;fill-opacity:1;fill-rule:nonzero;stroke:none"
         transform="matrix(0.13333333,0,0,-0.13333333,0,229.37333)"
         sodipodi:nodetypes="cccc" />
      <path
         id="path22"
         d="m 809.91,1055.813 h -54.863 v 40.867 h 121.277 l -66.414,-40.867"
         style="fill:#232b47;fill-opacity:1;fill-rule:nonzero;stroke:none"
         transform="matrix(0.13333333,0,0,-0.13333333,0,229.37333)"
         sodipodi:nodetypes="ccccc" />
      <path
         id="path23"
         d="m 903.949,1096.68 h 118.161 v -40.867 h -55.196 l -62.965,40.867"
         style="fill:#232b47;fill-opacity:1;fill-rule:nonzero;stroke:none"
         transform="matrix(0.13333333,0,0,-0.13333333,0,229.37333)"
         sodipodi:nodetypes="ccccc" />
      <path
         id="path24"
         d="M 1005.2,1104.42 H 771.957 c 22.836,41.2 66.504,69.04 116.613,69.04 50.11,0 93.774,-27.84 116.63,-69.04"
         style="fill:#232b47;fill-opacity:1;fill-rule:nonzero;stroke:none"
         transform="matrix(0.13333333,0,0,-0.13333333,0,229.37333)"
         sodipodi:nodetypes="ccsc" />
      <path
         id="path25"
         d="m 755.047,1029.129 v 6.371 l 1.539,-1.117 -1.117,-3.418 z m 45.445,-90.707 h -10.336 l 5.168,3.754 z m 7.106,0 h -7.063 l -1.98,6.098 5.222,3.793 h -6.457 l -1.996,6.14 -1.996,-6.14 h -6.453 l 5.23,-3.793 -1.992,-6.098 h -35.066 l -0.027,66.113 0.027,23.84 4.898,3.559 5.227,-3.797 -1.996,6.14 5.222,3.797 h -6.457 l -1.996,6.141 -0.91,-2.797 -1.258,-3.344 h -2.73 v 9.992 h 52.551 z m -52.578,66.113 5.234,-3.797 -2.008,-6.14 5.223,3.797 5.226,-3.797 -1.996,6.14 5.223,3.797 h -6.457 l -1.996,6.141 -1.992,-6.141 z m 17.992,-34.863 -2.004,-6.141 5.222,3.797 5.223,-3.797 -1.996,6.141 5.227,3.797 h -6.457 l -1.997,6.14 -1.996,-6.14 h -6.457 l 5.235,-3.797"
         style="fill:#232b47;fill-opacity:1;fill-rule:evenodd;stroke:none"
         transform="matrix(0.13333333,0,0,-0.13333333,0,229.37333)"
         sodipodi:nodetypes="cccccccccccccccccccccccccccccccccccccccccccccccccccccccc" />
      <path
         id="path26"
         d="m 807.598,930.672 v -29.109 h -52.551 v 29.109 h 52.551"
         style="fill:#232b47;fill-opacity:1;fill-rule:evenodd;stroke:none"
         transform="matrix(0.13333333,0,0,-0.13333333,0,229.37333)"
         sodipodi:nodetypes="ccccc" />
      <path
         id="path27"
         d="m 970.289,930.672 h 51.821 v -29.109 h -51.821 v 29.109"
         style="fill:#232b47;fill-opacity:1;fill-rule:evenodd;stroke:none"
         transform="matrix(0.13333333,0,0,-0.13333333,0,229.37333)"
         sodipodi:nodetypes="ccccc" />
      <path
         id="path28"
         d="m 891.762,901.563 h -5.91 l 2.937,2.136 z m -39.785,8.558 -2.004,-6.141 5.222,3.793 5.223,-3.793 -1.996,6.141 5.223,3.797 h -6.454 l -1.996,6.141 -1.996,-6.141 h -6.457 z m 33.593,-4.074 -1.461,-4.484 H 815.27 v 29.109 h 8.488 l -1.481,-4.555 h -6.457 l 5.235,-3.797 -2.004,-6.14 5.222,3.797 5.223,-3.797 -1.992,6.14 5.223,3.797 h -6.457 l -1.481,4.555 h 127.93 l -1.481,-4.555 h -6.457 l 5.223,-3.797 -1.996,-6.14 5.222,3.797 5.227,-3.797 -2.008,6.14 5.235,3.797 h -6.457 l -1.481,4.555 h 8.871 v -29.109 h -69.144 l -1.453,4.484 5.222,3.793 h -6.457 l -1.996,6.14 -1.992,-6.14 h -6.457 z m 39.024,4.074 5.234,3.797 h -6.457 l -1.996,6.141 -1.996,-6.141 h -6.457 l 5.223,-3.797 -1.993,-6.141 5.223,3.793 5.223,-3.793 -2.004,6.141"
         style="fill:#232b47;fill-opacity:1;fill-rule:evenodd;stroke:none"
         transform="matrix(0.13333333,0,0,-0.13333333,0,229.37333)"
         sodipodi:nodetypes="cccccccccccccccccccccccccccccccccccccccccccccccccccccccccccccc" />
      <path
         id="path29"
         d="m 1022.11,1035.242 v -5.027 l -1.33,4.062 z m 0,-96.82 h -34.719 -10.375 -6.727 v 109.644 h 51.821 v -9.992 h -2.56 l -1.99,6.141 -2,-6.141 h -6.45 l 5.22,-3.797 -1.99,-6.14 5.22,3.797 4.55,-3.301 v -24.098 h -6.08 l -1.99,6.141 -2,-6.141 h -6.46 l 5.23,-3.797 -2,-6.14 5.23,3.797 5.22,-3.797 -2.01,6.14 4.86,3.52 z m -34.719,0 -1.993,6.098 5.235,3.793 h -6.457 l -1.992,6.14 -1.996,-6.14 h -6.458 l 5.223,-3.793 -1.98,-6.098 5.211,3.754 5.164,-3.754 z m 17.099,31.25 5.24,3.797 h -6.46 l -1.99,6.14 -1.999,-6.14 h -6.457 l 5.223,-3.797 -1.992,-6.141 5.225,3.797 5.22,-3.797 -2.01,6.141"
         style="fill:#232b47;fill-opacity:1;fill-rule:evenodd;stroke:none"
         transform="matrix(0.13333333,0,0,-0.13333333,0,229.37333)"
         sodipodi:nodetypes="cccccccccccccccccccccccccccccccccccccccccccccccccccccc" />
    </g>
  </g>
</svg>
